<svg width="145" height="37" viewBox="0 0 145 37" fill="none" xmlns="http://www.w3.org/2000/svg">
<path d="M48.44 24.14H37.94L35.87 29H31.85L41.3 8H45.14L54.62 29H50.54L48.44 24.14ZM47.15 21.08L43.19 11.9L39.26 21.08H47.15ZM71.438 24.14H60.938L58.868 29H54.848L64.298 8H68.138L77.618 29H73.538L71.438 24.14ZM70.148 21.08L66.188 11.9L62.258 21.08H70.148ZM80.2888 8H89.4688C91.7088 8 93.6988 8.44 95.4388 9.32C97.1788 10.18 98.5288 11.41 99.4888 13.01C100.449 14.59 100.929 16.42 100.929 18.5C100.929 20.58 100.449 22.42 99.4888 24.02C98.5288 25.6 97.1788 26.83 95.4388 27.71C93.6988 28.57 91.7088 29 89.4688 29H80.2888V8ZM89.2888 25.7C90.8288 25.7 92.1788 25.41 93.3388 24.83C94.5188 24.23 95.4188 23.39 96.0388 22.31C96.6788 21.21 96.9988 19.94 96.9988 18.5C96.9988 17.06 96.6788 15.8 96.0388 14.72C95.4188 13.62 94.5188 12.78 93.3388 12.2C92.1788 11.6 90.8288 11.3 89.2888 11.3H84.1888V25.7H89.2888ZM111.584 29.3C109.964 29.3 108.394 29.07 106.874 28.61C105.374 28.15 104.184 27.54 103.304 26.78L104.654 23.75C105.514 24.43 106.564 24.99 107.804 25.43C109.064 25.85 110.324 26.06 111.584 26.06C113.144 26.06 114.304 25.81 115.064 25.31C115.844 24.81 116.234 24.15 116.234 23.33C116.234 22.73 116.014 22.24 115.574 21.86C115.154 21.46 114.614 21.15 113.954 20.93C113.294 20.71 112.394 20.46 111.254 20.18C109.654 19.8 108.354 19.42 107.354 19.04C106.374 18.66 105.524 18.07 104.804 17.27C104.104 16.45 103.754 15.35 103.754 13.97C103.754 12.81 104.064 11.76 104.684 10.82C105.324 9.86 106.274 9.1 107.534 8.54C108.814 7.98 110.374 7.7 112.214 7.7C113.494 7.7 114.754 7.86 115.994 8.18C117.234 8.5 118.304 8.96 119.204 9.56L117.974 12.59C117.054 12.05 116.094 11.64 115.094 11.36C114.094 11.08 113.124 10.94 112.184 10.94C110.644 10.94 109.494 11.2 108.734 11.72C107.994 12.24 107.624 12.93 107.624 13.79C107.624 14.39 107.834 14.88 108.254 15.26C108.694 15.64 109.244 15.94 109.904 16.16C110.564 16.38 111.464 16.63 112.604 16.91C114.164 17.27 115.444 17.65 116.444 18.05C117.444 18.43 118.294 19.02 118.994 19.82C119.714 20.62 120.074 21.7 120.074 23.06C120.074 24.22 119.754 25.27 119.114 26.21C118.494 27.15 117.544 27.9 116.264 28.46C114.984 29.02 113.424 29.3 111.584 29.3ZM132.971 29.3C130.071 29.3 127.811 28.49 126.191 26.87C124.571 25.23 123.761 22.89 123.761 19.85V8H127.661V19.7C127.661 23.82 129.441 25.88 133.001 25.88C136.541 25.88 138.311 23.82 138.311 19.7V8H142.151V19.85C142.151 22.89 141.341 25.23 139.721 26.87C138.121 28.49 135.871 29.3 132.971 29.3Z" fill="white"/>
<path d="M8.08114 27.5H8.90315L2.76029 9.5H2.08114L8.08114 27.5Z" stroke="#1996E5" stroke-width="3"/>
<path d="M8.08114 27.5H8.90315L2.76029 9.5H2.08114L8.08114 27.5Z" stroke="#1996E5" stroke-width="3"/>
<path d="M22.5811 27.5H23.3715L16.9429 9.5H16.5811L22.5811 27.5Z" stroke="#FB3329" stroke-width="3"/>
<path d="M9.91886 27.5H9.09685L15.2397 9.5H15.9189L9.91886 27.5Z" stroke="#08C420" stroke-width="3"/>
<path d="M24.4189 27.5H23.5968L29.7397 9.5H30.4189L24.4189 27.5Z" stroke="#FBD100" stroke-width="3"/>
</svg>
