<svg width="145" height="37" viewBox="0 0 145 37" fill="none" xmlns="http://www.w3.org/2000/svg">
<path d="M50.54 29H54.62L45.14 8H41.3L31.85 29H35.87L37.94 24.14H48.44L50.54 29ZM39.26 21.08L43.19 11.9L47.15 21.08H39.26ZM73.538 29H77.618L68.138 8H64.298L54.848 29H58.868L60.938 24.14H71.438L73.538 29ZM62.258 21.08L66.188 11.9L70.148 21.08H62.258ZM80.2888 29H89.4688C96.2788 29 100.929 24.8 100.929 18.5C100.929 12.2 96.2788 8 89.4688 8H80.2888V29ZM84.1888 25.7V11.3H89.2888C93.9688 11.3 96.9988 14.15 96.9988 18.5C96.9988 22.85 93.9688 25.7 89.2888 25.7H84.1888ZM111.584 29.3C117.344 29.3 120.074 26.42 120.074 23.06C120.074 15.35 107.624 18.26 107.624 13.79C107.624 12.2 108.944 10.94 112.184 10.94C114.014 10.94 116.084 11.48 117.974 12.59L119.204 9.56C117.374 8.36 114.734 7.7 112.214 7.7C106.454 7.7 103.754 10.58 103.754 13.97C103.754 21.77 116.234 18.8 116.234 23.33C116.234 24.89 114.854 26.06 111.584 26.06C109.004 26.06 106.334 25.1 104.654 23.75L103.304 26.78C105.044 28.28 108.314 29.3 111.584 29.3ZM132.971 29.3C138.701 29.3 142.151 25.97 142.151 19.85V8H138.311V19.7C138.311 24.02 136.391 25.88 133.001 25.88C129.611 25.88 127.661 24.02 127.661 19.7V8H123.761V19.85C123.761 25.97 127.211 29.3 132.971 29.3Z" fill="#151828"/>
<path d="M8.08114 27.5H8.90315L2.76029 9.5H2.08114L8.08114 27.5Z" stroke="#1996E5" stroke-width="3"/>
<path d="M8.08114 27.5H8.90315L2.76029 9.5H2.08114L8.08114 27.5Z" stroke="#1996E5" stroke-width="3"/>
<path d="M22.5811 27.5H23.3715L16.9429 9.5H16.5811L22.5811 27.5Z" stroke="#FB3329" stroke-width="3"/>
<path d="M9.91886 27.5H9.09685L15.2397 9.5H15.9189L9.91886 27.5Z" stroke="#08C420" stroke-width="3"/>
<path d="M24.4189 27.5H23.5968L29.7397 9.5H30.4189L24.4189 27.5Z" stroke="#FBD100" stroke-width="3"/>
</svg>
