<svg width="45" height="40" viewBox="0 0 45 40" fill="none" xmlns="http://www.w3.org/2000/svg">
<path d="M31.2019 38.0446L39.5948 1.95345L44.7663 1.95517L36.1388 38.0462L31.2019 38.0446Z" fill="#FBD100"/>
<path d="M44.7432 1.9732L39.6088 1.97149L31.2244 38.0266L36.1244 38.0282L44.7432 1.9732ZM44.7888 1.93721L36.1527 38.0643L31.1791 38.0626L39.5803 1.93548L44.7888 1.93721Z" fill="#707070"/>
<path d="M10.8995 38.0441L20.9058 1.95399L26.0764 1.95571L15.7456 38.0457L10.8995 38.0441Z" fill="#08C420"/>
<path d="M26.0522 1.9737L20.9192 1.97199L10.9228 38.0261L15.7317 38.0277L26.0522 1.9737ZM26.0999 1.93771L15.7589 38.0637L10.8755 38.0621L20.8919 1.93598L26.0999 1.93771Z" fill="#707070"/>
<path d="M26.0667 1.92861L33.2457 29.3934L31.2106 38.0412L23.6339 10.4781L26.0667 1.92861Z" fill="#FB3329"/>
<path d="M31.2092 37.9683L33.2271 29.3935L26.0659 1.99674L23.6526 10.478L31.2092 37.9683ZM31.2119 38.1138L23.6153 10.4779L26.0674 1.86013L33.2642 29.393L31.2119 38.1138Z" fill="#707070"/>
<path d="M2.11577 1.87127L7.03602 1.87279L13.2578 29.5568L10.8807 38L2.11577 1.87127Z" fill="#1996E5"/>
<path d="M10.8831 37.893L13.2202 29.5751L7.09952 1.80662L2.15289 1.82235L10.8831 37.893ZM10.8804 38.036L2.10696 1.7866L7.12868 1.77062L13.2574 29.576L10.8804 38.036Z" fill="#707070"/>
</svg>
