<svg width="21" height="13" viewBox="0 0 21 13" fill="none" xmlns="http://www.w3.org/2000/svg">
<path d="M20.8065 11.1153C20.8065 11.0323 20.7235 11.0323 20.7235 10.9493C20.3914 10.2851 19.6442 9.45486 18.6479 8.54161C18.1498 8.1265 17.9007 7.7944 17.7347 7.62835C17.4856 7.29626 17.4856 7.0472 17.5686 6.71511C17.6517 6.46604 17.9837 6.05092 18.5649 5.30371C18.897 4.88859 19.063 4.63953 19.3121 4.39046C20.5574 2.73001 21.1386 1.6507 20.9726 1.15256L20.8896 1.06955C20.8065 0.986525 20.7235 0.903505 20.5574 0.903505C20.3914 0.820482 20.1423 0.820482 19.8933 0.903505H16.7384C16.6554 0.903505 16.6554 0.903505 16.4893 0.903505C16.4063 0.903505 16.3233 0.903505 16.3233 0.903505H16.2403H16.1572L16.0742 0.98652C15.9912 1.06954 15.9912 1.06954 15.9912 1.15256C15.6591 2.06582 15.244 2.81302 14.8289 3.64325C14.5798 4.05837 14.3307 4.47349 14.0817 4.80558C13.8326 5.13767 13.6665 5.38673 13.5005 5.55278C13.3344 5.71883 13.1684 5.80185 13.0854 5.9679C13.0024 6.05092 12.8363 6.13395 12.8363 6.05092C12.7533 6.05092 12.6703 6.05092 12.6703 5.9679C12.5872 5.88487 12.5042 5.80185 12.4212 5.71882C12.3382 5.6358 12.3382 5.46976 12.2551 5.30371C12.2551 5.13766 12.2551 4.97162 12.2551 4.88859C12.2551 4.80557 12.2551 4.55651 12.2551 4.39046C12.2551 4.1414 12.2551 3.97535 12.2551 3.89232C12.2551 3.64325 12.2551 3.31117 12.2551 2.97908C12.2551 2.64699 12.2551 2.39791 12.2551 2.23186C12.2551 2.06582 12.2551 1.81675 12.2551 1.65071C12.2551 1.40164 12.2551 1.23559 12.2551 1.15256C12.2551 1.06954 12.1721 0.9035 12.1721 0.820477C12.0891 0.737454 12.0061 0.654428 11.9231 0.571405C11.84 0.488383 11.674 0.488385 11.591 0.405362C11.1759 0.322339 10.6777 0.239319 10.0966 0.239319C8.7682 0.239319 7.85494 0.322344 7.52285 0.48839C7.3568 0.571413 7.19075 0.654431 7.10773 0.820477C6.94169 0.986523 6.94168 1.06955 7.0247 1.06955C7.43982 1.15257 7.77192 1.31861 7.93796 1.56768L8.02099 1.73373C8.10401 1.81676 8.104 1.9828 8.18702 2.23186C8.27004 2.48093 8.27005 2.73 8.27005 3.06209C8.27005 3.56023 8.27005 4.05837 8.27005 4.39046C8.27005 4.80558 8.18702 5.05464 8.18702 5.30371C8.18702 5.55278 8.10401 5.71883 8.02099 5.80185C7.93797 5.9679 7.93796 6.05092 7.85493 6.05092C7.85493 6.05092 7.85493 6.13394 7.77191 6.13394C7.68888 6.13394 7.60586 6.21697 7.43982 6.21697C7.3568 6.21697 7.19075 6.13395 7.10773 6.05092C6.94169 5.9679 6.77564 5.80185 6.69262 5.63581C6.52657 5.46976 6.36052 5.22069 6.19447 4.88859C6.02843 4.5565 5.77935 4.22442 5.6133 3.72628L5.44727 3.39419C5.36425 3.22815 5.1982 2.89605 5.03216 2.48094C4.86611 2.06582 4.70006 1.73373 4.53401 1.31862C4.45099 1.15257 4.36798 1.06954 4.28495 0.98652H4.20193C4.20193 0.98652 4.11889 0.903505 4.03587 0.903505C3.95285 0.903505 3.86983 0.820477 3.78681 0.820477H0.797976C0.465884 0.820477 0.29984 0.903497 0.216817 0.98652L0.133789 1.06955C0.133789 1.06955 0.133789 1.15257 0.133789 1.23559C0.133789 1.31861 0.133794 1.40163 0.216817 1.56768C0.631932 2.56395 1.13007 3.56023 1.62821 4.55651C2.12634 5.46976 2.62449 6.29999 2.95658 6.88115C3.37169 7.46231 3.70378 8.04347 4.1189 8.54161C4.53401 9.03975 4.78308 9.37184 4.8661 9.53788C5.03215 9.70393 5.11516 9.78695 5.19819 9.86997L5.44727 10.119C5.61332 10.2851 5.86238 10.5342 6.19447 10.7832C6.52657 11.0323 6.94168 11.2814 7.35679 11.5304C7.77191 11.7795 8.27005 11.9456 8.76819 12.1116C9.34935 12.2776 9.84749 12.3607 10.3456 12.2776H11.591C11.84 12.2776 12.0061 12.1946 12.1721 12.0286L12.2551 11.9455C12.2551 11.8625 12.3382 11.8625 12.3382 11.7795C12.3382 11.6965 12.3382 11.6135 12.3382 11.4474C12.3382 11.1153 12.3382 10.8663 12.4212 10.6172C12.5042 10.3681 12.5042 10.2021 12.5873 10.036C12.6703 9.86998 12.7533 9.78695 12.8363 9.70393C12.9193 9.6209 13.0024 9.53788 13.0024 9.53788H13.0854C13.2514 9.45486 13.5005 9.53788 13.6665 9.70393C13.9156 9.86997 14.1647 10.119 14.3307 10.3681C14.4968 10.6172 14.7459 10.8663 15.0779 11.1983C15.41 11.5304 15.6591 11.7795 15.8251 11.8625L16.0742 12.0286C16.2403 12.1116 16.4063 12.1946 16.6554 12.2776C16.9044 12.3607 17.0705 12.3607 17.2365 12.3607L20.0593 12.2776C20.3084 12.2776 20.5575 12.1946 20.7235 12.1116C20.8895 12.0286 20.9726 11.9455 20.9726 11.7795C20.9726 11.6965 20.9726 11.5304 20.9726 11.4474C20.8065 11.2814 20.8065 11.1983 20.8065 11.1153Z" fill="white"/>
</svg>
