<svg width="21" height="21" viewBox="0 0 21 21" fill="none" xmlns="http://www.w3.org/2000/svg">
<path d="M17.9269 3.0625C15.9512 1.09375 13.3171 0 10.5366 0C4.7561 0 0.0731697 4.66667 0.0731697 10.4271C0.0731697 12.25 0.585367 14.0729 1.46342 15.6042L0 21L5.56099 19.5417C7.09757 20.3438 8.7805 20.7812 10.5366 20.7812C16.3171 20.7812 21 16.1146 21 10.3542C20.9269 7.65625 19.9025 5.03125 17.9269 3.0625ZM15.5854 14.1458C15.3659 14.7292 14.3415 15.3125 13.8293 15.3854C13.3903 15.4583 12.8049 15.4583 12.2195 15.3125C11.8537 15.1667 11.3415 15.0208 10.7561 14.7292C8.12196 13.6354 6.43903 11.0104 6.29269 10.7917C6.14635 10.6458 5.19513 9.40625 5.19513 8.09375C5.19513 6.78125 5.85367 6.19792 6.07318 5.90625C6.29269 5.61458 6.58537 5.61458 6.80489 5.61458C6.95123 5.61458 7.17074 5.61458 7.31708 5.61458C7.46342 5.61458 7.68294 5.54167 7.90245 6.05208C8.12196 6.5625 8.63416 7.875 8.70733 7.94792C8.7805 8.09375 8.7805 8.23958 8.70733 8.38542C8.63416 8.53125 8.56098 8.67708 8.41464 8.82292C8.2683 8.96875 8.12196 9.1875 8.04879 9.26042C7.90245 9.40625 7.75611 9.55208 7.90245 9.77083C8.04879 10.0625 8.56099 10.8646 9.36587 11.5937C10.3903 12.4687 11.1951 12.7604 11.4878 12.9063C11.7805 13.0521 11.9268 12.9792 12.0732 12.8333C12.2195 12.6875 12.7317 12.1042 12.8781 11.8125C13.0244 11.5208 13.2439 11.5938 13.4634 11.6667C13.6829 11.7396 15 12.3958 15.2195 12.5417C15.5122 12.6875 15.6586 12.7604 15.7317 12.8333C15.8049 13.0521 15.8049 13.5625 15.5854 14.1458Z" fill="white"/>
</svg>
