<svg width="18" height="13" viewBox="0 0 18 13" fill="none" xmlns="http://www.w3.org/2000/svg">
<path d="M17.7132 4.91312C17.7132 4.52524 17.6485 4.07272 17.6485 3.55555C17.5839 3.03838 17.5192 2.52121 17.4546 2.06868C17.3253 1.55151 17.1313 1.16364 16.7435 0.840405C16.4202 0.517173 15.9677 0.323228 15.5152 0.258582C14.0283 0.0646424 11.8303 0 8.85659 0C5.88285 0 3.62021 0.0646424 2.19798 0.258582C1.74545 0.323228 1.29293 0.517173 0.969699 0.840405C0.646466 1.16364 0.387876 1.55151 0.258582 2.06868C0.129289 2.52121 0.0646506 2.97373 0.0646506 3.55555C3.94475e-06 4.07272 0 4.52524 0 4.91312C0 5.301 0 5.75353 0 6.39999C0 7.04645 0 7.56363 0 7.88686C0 8.27474 0.0646506 8.72727 0.0646506 9.24444C0.129297 9.76161 0.193936 10.2788 0.258582 10.7313C0.387876 11.2485 0.581819 11.6364 0.969699 11.9596C1.29293 12.2828 1.74545 12.4768 2.19798 12.5414C3.68485 12.7353 5.88285 12.8 8.85659 12.8C11.8303 12.8 14.093 12.7353 15.5152 12.5414C15.9677 12.4768 16.4202 12.2828 16.7435 11.9596C17.0667 11.6364 17.3253 11.2485 17.4546 10.7313C17.5839 10.2788 17.6485 9.82625 17.6485 9.24444C17.7132 8.72727 17.7132 8.27474 17.7132 7.88686C17.7132 7.49898 17.7132 7.04645 17.7132 6.39999C17.7132 5.75353 17.7132 5.23635 17.7132 4.91312ZM12.2829 6.91716L7.17578 10.0848C7.11113 10.1495 6.98184 10.2141 6.85254 10.2141C6.72325 10.2141 6.6586 10.2141 6.52931 10.1495C6.33537 10.0202 6.20608 9.82625 6.20608 9.56767V3.16767C6.20608 2.90908 6.33537 2.71515 6.52931 2.58586C6.72325 2.45656 6.98184 2.45656 7.17578 2.58586L12.2829 5.75353C12.4768 5.88282 12.6061 6.07676 12.6061 6.2707C12.6061 6.46464 12.4768 6.78787 12.2829 6.91716Z" fill="white"/>
</svg>
